# This file uses centimeters as units for non-parametric coordinates.

g default
v -12.981314 -7.441490 -4.142738
v -19.113468 -6.782784 -6.007126
v -19.113331 -5.370354 -6.000389
v -19.100185 -2.469902 -5.905579
v -18.691477 0.031487 -5.654709
v -17.656300 2.270332 -5.268967
v -11.836567 5.924980 -3.792942
v -5.257425 7.643120 -1.775814
v -5.595507 -7.846725 -1.906086
v 3.987101 8.307617 1.577747
v 3.816820 -8.292343 1.418877
v 8.779321 8.304420 3.030823
v 9.202305 -8.295944 3.051853
v 17.960022 8.034340 5.212437
v 14.678746 -8.307625 4.703663
v 18.647835 3.261650 5.614101
v 18.983524 -0.814850 5.821968
v 19.113468 -5.331757 5.981422
v 19.108406 -8.300690 6.007122
vt 0.000423 0.353754
vt 0.161211 0.301253
vt 0.000793 0.316845
vt 0.000000 0.429551
vt 0.010019 0.495025
vt 0.187592 0.650845
vt 0.036478 0.553804
vt 0.359062 0.697482
vt 0.354323 0.292616
vt 0.600463 0.717291
vt 0.600401 0.283459
vt 0.725693 0.718474
vt 0.741135 0.284789
vt 0.965672 0.713844
vt 0.884247 0.285932
vt 0.984908 0.589307
vt 0.994758 0.482869
vt 0.999347 0.364869
vt 1.000000 0.287284
vn 0.292727 0.018258 -0.956022
vn 0.287640 0.006503 -0.957717
vn 0.290246 0.004208 -0.956943
vn 0.313053 0.004209 -0.949726
vn 0.316981 0.004551 -0.948421
vn 0.313927 0.007054 -0.949421
vn 0.312725 0.005515 -0.949828
vn 0.287640 0.006503 -0.957717
vn 0.276354 -0.000751 -0.961056
vn 0.316981 0.004551 -0.948421
vn 0.313053 0.004209 -0.949726
vn 0.275849 0.028104 -0.960790
vn 0.244631 0.035023 -0.968984
vn 0.276354 -0.000751 -0.961056
vn 0.283467 0.028623 -0.958555
vn 0.275849 0.028104 -0.960790
vn 0.276354 -0.000751 -0.961056
vn 0.287640 0.006503 -0.957717
vn 0.292727 0.018258 -0.956022
vn 0.283467 0.028623 -0.958555
vn 0.287640 0.006503 -0.957717
vn 0.280559 0.002544 -0.959833
vn 0.268390 0.006074 -0.963291
vn 0.273446 -0.009492 -0.961841
vn 0.277954 -0.004775 -0.960582
vn 0.312725 0.005515 -0.949828
vn 0.313927 0.007054 -0.949421
vn 0.268390 0.006074 -0.963291
vn 0.280559 0.002544 -0.959833
vn 0.277954 -0.004775 -0.960582
vn 0.302100 -0.028904 -0.952838
vn 0.288374 -0.025722 -0.957172
vn 0.277954 -0.004775 -0.960582
vn 0.288374 -0.025722 -0.957172
vn 0.288480 -0.018122 -0.957314
vn 0.277954 -0.004775 -0.960582
vn 0.288480 -0.018122 -0.957314
vn 0.285020 -0.002949 -0.958517
vn 0.273446 -0.009492 -0.961841
vn 0.302100 -0.028904 -0.952838
vn 0.277954 -0.004775 -0.960582
s off
g right_rearview
f 3/1/1 1/2/2 2/3/3
f 9/9/4 8/8/5 10/10/6 11/11/7
f 1/2/8 7/6/9 8/8/10 9/9/11
f 5/5/12 6/7/13 7/6/14
f 4/4/15 5/5/16 7/6/17 1/2/18
f 3/1/19 4/4/20 1/2/21
f 13/13/22 12/12/23 14/14/24 15/15/25
f 11/11/26 10/10/27 12/12/28 13/13/29
f 15/15/30 16/16/31 17/17/32
f 15/15/33 17/17/34 18/18/35
f 15/15/36 18/18/37 19/19/38
f 14/14/39 16/16/40 15/15/41
